<mxfile host="app.diagrams.net" modified="2020-10-06T08:42:16.827Z" agent="5.0 (Macintosh; Intel Mac OS X 10_15_6) AppleWebKit/537.36 (KHTML, like Gecko) Chrome/85.0.4183.121 Safari/537.36" etag="PRxKscYVDwu_GN0-yFn_" version="13.7.7" type="github">
  <diagram id="B3XuiFMkRl_HcEBliHqs" name="元数据模型">
    <mxGraphModel dx="946" dy="623" grid="1" gridSize="10" guides="1" tooltips="1" connect="1" arrows="1" fold="1" page="1" pageScale="1" pageWidth="850" pageHeight="1100" math="0" shadow="0">
      <root>
        <mxCell id="0" />
        <mxCell id="1" parent="0" />
        <mxCell id="KZHVBIwKDE3Lt9LW241k-1" value="这是元数据模型1111" style="rounded=1;whiteSpace=wrap;html=1;" parent="1" vertex="1">
          <mxGeometry x="170" y="450" width="120" height="60" as="geometry" />
        </mxCell>
      </root>
    </mxGraphModel>
  </diagram>
</mxfile>
